<svg width="34" height="34" viewBox="0 0 34 34" fill="none" xmlns="http://www.w3.org/2000/svg">
<rect x="1" y="1" width="32" height="32" rx="16" fill="#111827"/>
<rect x="1" y="1" width="32" height="32" rx="16" stroke="#374151" strokeWidth="2"/>
<path d="M16.0859 10.5837L11.5026 14.2504H7.83594V19.7504H11.5026L16.0859 23.417V10.5837Z" fill="white"/>
<path d="M23.4834 10.5195C25.2019 12.2385 26.1673 14.5697 26.1673 17.0004C26.1673 19.431 25.2019 21.7622 23.4834 23.4812M20.2476 13.7554C21.1068 14.6149 21.5895 15.7804 21.5895 16.9958C21.5895 18.2111 21.1068 19.3767 20.2476 20.2362M16.0859 10.5837L11.5026 14.2504H7.83594V19.7504H11.5026L16.0859 23.417V10.5837Z" stroke="white" strokeWidth="2" strokeLinecap="round" strokeLinejoin="round"/>
</svg>
