<svg width="36" height="35" viewBox="0 0 36 35" fill="none" xmlns="http://www.w3.org/2000/svg">
<rect x="1" y="1" width="34" height="33" rx="16.5" fill="#111827"/>
<rect x="1" y="1" width="34" height="33" rx="16.5" stroke="#374151" strokeWidth="2"/>
<path d="M29.3561 17.2682C28.2956 12.4742 26.6995 9.91546 24.3318 9.21653C23.8341 9.07057 23.3179 8.99765 22.7992 9.00006C22.1137 9.00006 21.5167 9.16704 20.8851 9.34402C20.1241 9.5575 19.2595 9.79997 17.999 9.79997C16.7384 9.79997 15.8733 9.558 15.1108 9.34452C14.4788 9.16704 13.8822 9.00006 13.1987 9.00006C12.6624 8.9982 12.1284 9.07089 11.6121 9.21603C9.25697 9.91196 7.66188 12.4697 6.58581 17.2652C5.42875 22.4256 5.99828 25.6837 8.18291 26.4396C8.48236 26.5452 8.79744 26.5996 9.11496 26.6006C10.6115 26.6006 11.8116 25.3543 12.6317 24.3339C13.5582 23.179 14.6428 22.5931 17.999 22.5931C20.9966 22.5931 22.2372 22.9995 23.3088 24.3339C23.9823 25.1728 24.6189 25.7597 25.2539 26.1292C26.0984 26.6201 26.9425 26.7291 27.762 26.4476C29.0531 26.0072 29.7931 24.8428 29.9622 22.986C30.0907 21.5622 29.8927 19.6919 29.3561 17.2682ZM15.5988 16.9992H13.9987V18.599C13.9987 18.8112 13.9144 19.0146 13.7644 19.1646C13.6144 19.3146 13.4109 19.3989 13.1987 19.3989C12.9865 19.3989 12.783 19.3146 12.633 19.1646C12.4829 19.0146 12.3986 18.8112 12.3986 18.599V16.9992H10.7986C10.5864 16.9992 10.3829 16.9149 10.2328 16.7649C10.0828 16.6149 9.99851 16.4114 9.99851 16.1993C9.99851 15.9871 10.0828 15.7837 10.2328 15.6336C10.3829 15.4836 10.5864 15.3994 10.7986 15.3994H12.3986V13.7995C12.3986 13.5874 12.4829 13.3839 12.633 13.2339C12.783 13.0839 12.9865 12.9996 13.1987 12.9996C13.4109 12.9996 13.6144 13.0839 13.7644 13.2339C13.9144 13.3839 13.9987 13.5874 13.9987 13.7995V15.3994H15.5988C15.811 15.3994 16.0145 15.4836 16.1645 15.6336C16.3146 15.7837 16.3989 15.9871 16.3989 16.1993C16.3989 16.4114 16.3146 16.6149 16.1645 16.7649C16.0145 16.9149 15.811 16.9992 15.5988 16.9992ZM19.7991 17.1992C19.6013 17.1992 19.4079 17.1405 19.2435 17.0306C19.079 16.9208 18.9508 16.7646 18.8751 16.5819C18.7994 16.3992 18.7796 16.1982 18.8182 16.0042C18.8568 15.8102 18.9521 15.6321 19.0919 15.4922C19.2318 15.3524 19.41 15.2572 19.604 15.2186C19.798 15.18 19.999 15.1998 20.1818 15.2755C20.3645 15.3512 20.5207 15.4793 20.6306 15.6438C20.7405 15.8082 20.7991 16.0015 20.7991 16.1993C20.7991 16.4645 20.6938 16.7188 20.5062 16.9063C20.3187 17.0938 20.0643 17.1992 19.7991 17.1992ZM21.9992 19.3989C21.8013 19.3989 21.6079 19.3402 21.4433 19.2302C21.2788 19.1203 21.1506 18.9639 21.075 18.7811C20.9994 18.5982 20.9798 18.3971 21.0185 18.203C21.0573 18.009 21.1528 17.8309 21.2929 17.6911C21.4331 17.5514 21.6115 17.4563 21.8056 17.418C21.9998 17.3797 22.2009 17.3999 22.3836 17.476C22.5663 17.552 22.7223 17.6806 22.8319 17.8453C22.9415 18.0101 22.9998 18.2037 22.9993 18.4015C22.9986 18.6663 22.8929 18.92 22.7055 19.1069C22.518 19.2939 22.264 19.3989 21.9992 19.3989ZM21.9992 14.9994C21.8014 14.9994 21.6081 14.9408 21.4436 14.8309C21.2791 14.721 21.151 14.5649 21.0753 14.3822C20.9996 14.1994 20.9798 13.9984 21.0184 13.8044C21.0569 13.6105 21.1522 13.4323 21.2921 13.2925C21.4319 13.1526 21.6101 13.0574 21.8041 13.0188C21.9981 12.9803 22.1992 13.0001 22.3819 13.0757C22.5646 13.1514 22.7208 13.2796 22.8307 13.444C22.9406 13.6084 22.9993 13.8018 22.9993 13.9995C22.9993 14.2647 22.8939 14.519 22.7063 14.7065C22.5188 14.8941 22.2644 14.9994 21.9992 14.9994ZM24.1993 17.1992C24.0015 17.1992 23.8082 17.1405 23.6437 17.0306C23.4793 16.9208 23.3511 16.7646 23.2754 16.5819C23.1997 16.3992 23.1799 16.1982 23.2185 16.0042C23.2571 15.8102 23.3523 15.6321 23.4922 15.4922C23.632 15.3524 23.8102 15.2572 24.0042 15.2186C24.1982 15.18 24.3993 15.1998 24.582 15.2755C24.7648 15.3512 24.921 15.4793 25.0308 15.6438C25.1407 15.8082 25.1994 16.0015 25.1994 16.1993C25.1994 16.4645 25.094 16.7188 24.9065 16.9063C24.7189 17.0938 24.4646 17.1992 24.1993 17.1992Z" fill="white"/>
<g clipPath="url(#clip0_2680_5896)">
<rect x="12.9609" y="18.4277" width="10.0781" height="10.0785" rx="5.03907" fill="#12171D"/>
<rect x="13.8516" y="19.3164" width="8.29943" height="8.29973" rx="4.14972" fill="black"/>
<path d="M17.5863 25.5412H18.4163V23.0513H17.5863V25.5412ZM18.0013 22.2213C18.1189 22.2213 18.2175 22.1815 18.2972 22.1018C18.3768 22.0221 18.4165 21.9236 18.4163 21.8063C18.4163 21.6887 18.3764 21.5903 18.2967 21.5109C18.2171 21.4315 18.1186 21.3916 18.0013 21.3913C17.8837 21.3913 17.7852 21.4312 17.7058 21.5109C17.6264 21.5905 17.5866 21.689 17.5863 21.8063C17.5863 21.9239 17.6261 22.0225 17.7058 22.1022C17.7855 22.1819 17.884 22.2216 18.0013 22.2213ZM18.0013 27.6161C17.4272 27.6161 16.8878 27.5071 16.3829 27.2891C15.878 27.0711 15.4388 26.7755 15.0654 26.4023C14.6919 26.0288 14.3963 25.5896 14.1786 25.0847C13.9608 24.5798 13.8518 24.0403 13.8516 23.4663C13.8516 22.8922 13.9606 22.3527 14.1786 21.8478C14.3966 21.3429 14.6922 20.9037 15.0654 20.5302C15.4388 20.1568 15.878 19.8611 16.3829 19.6434C16.8878 19.4257 17.4272 19.3167 18.0013 19.3164C18.5753 19.3164 19.1148 19.4254 19.6197 19.6434C20.1246 19.8614 20.5637 20.157 20.9372 20.5302C21.3107 20.9037 21.6064 21.3429 21.8244 21.8478C22.0424 22.3527 22.1513 22.8922 22.151 23.4663C22.151 24.0403 22.042 24.5798 21.824 25.0847C21.606 25.5896 21.3104 26.0288 20.9372 26.4023C20.5637 26.7758 20.1246 27.0715 19.6197 27.2895C19.1148 27.5075 18.5753 27.6164 18.0013 27.6161Z" fill="white"/>
<path d="M17.5863 25.5412H18.4163V23.0513H17.5863V25.5412ZM18.0013 22.2213C18.1189 22.2213 18.2175 22.1815 18.2972 22.1018C18.3768 22.0221 18.4165 21.9236 18.4163 21.8063C18.4163 21.6887 18.3764 21.5903 18.2967 21.5109C18.2171 21.4315 18.1186 21.3916 18.0013 21.3913C17.8837 21.3913 17.7852 21.4312 17.7058 21.5109C17.6264 21.5905 17.5866 21.689 17.5863 21.8063C17.5863 21.9239 17.6261 22.0225 17.7058 22.1022C17.7855 22.1819 17.884 22.2216 18.0013 22.2213ZM18.0013 27.6161C17.4272 27.6161 16.8878 27.5071 16.3829 27.2891C15.878 27.0711 15.4388 26.7755 15.0654 26.4023C14.6919 26.0288 14.3963 25.5896 14.1786 25.0847C13.9608 24.5798 13.8518 24.0403 13.8516 23.4663C13.8516 22.8922 13.9606 22.3527 14.1786 21.8478C14.3966 21.3429 14.6922 20.9037 15.0654 20.5302C15.4388 20.1568 15.878 19.8611 16.3829 19.6434C16.8878 19.4257 17.4272 19.3167 18.0013 19.3164C18.5753 19.3164 19.1148 19.4254 19.6197 19.6434C20.1246 19.8614 20.5637 20.157 20.9372 20.5302C21.3107 20.9037 21.6064 21.3429 21.8244 21.8478C22.0424 22.3527 22.1513 22.8922 22.151 23.4663C22.151 24.0403 22.042 24.5798 21.824 25.0847C21.606 25.5896 21.3104 26.0288 20.9372 26.4023C20.5637 26.7758 20.1246 27.0715 19.6197 27.2895C19.1148 27.5075 18.5753 27.6164 18.0013 27.6161Z" fill="url(#paint0_linear_2680_5896)"/>
</g>
<defs>
<linearGradient id="paint0_linear_2680_5896" x1="18.0013" y1="19.3164" x2="18.0013" y2="27.6161" gradientUnits="userSpaceOnUse">
<stop stopColor="#FBAE56"/>
<stop offset="1" stopColor="#F28100"/>
</linearGradient>
<clipPath id="clip0_2680_5896">
<rect width="10.0779" height="10.0782" fill="white" transform="translate(12.9609 18.4297)"/>
</clipPath>
</defs>
</svg>
