<svg width="34" height="34" viewBox="0 0 34 34" fill="none" xmlns="http://www.w3.org/2000/svg">
<rect x="1" y="1" width="32" height="32" rx="16" fill="#1C2433"/>
<rect x="1" y="1" width="32" height="32" rx="16" stroke="#4B5563" strokeWidth="2"/>
<path d="M10.5859 16.9993V9.66602M23.4193 24.3327V21.5827M10.5859 24.3327V20.666M23.4193 17.916V9.66602M17.0026 12.416V9.66602M17.0026 24.3327V16.0827" stroke="white" strokeWidth="2" strokeLinecap="round"/>
<path d="M10.5833 20.6667C11.5959 20.6667 12.4167 19.8459 12.4167 18.8333C12.4167 17.8208 11.5959 17 10.5833 17C9.57081 17 8.75 17.8208 8.75 18.8333C8.75 19.8459 9.57081 20.6667 10.5833 20.6667Z" stroke="white" strokeWidth="2" strokeLinecap="round"/>
<path d="M16.9974 16.0827C18.0099 16.0827 18.8307 15.2619 18.8307 14.2493C18.8307 13.2368 18.0099 12.416 16.9974 12.416C15.9849 12.416 15.1641 13.2368 15.1641 14.2493C15.1641 15.2619 15.9849 16.0827 16.9974 16.0827Z" stroke="white" strokeWidth="2" strokeLinecap="round"/>
<path d="M23.4193 21.5827C24.4318 21.5827 25.2526 20.7619 25.2526 19.7493C25.2526 18.7368 24.4318 17.916 23.4193 17.916C22.4067 17.916 21.5859 18.7368 21.5859 19.7493C21.5859 20.7619 22.4067 21.5827 23.4193 21.5827Z" stroke="white" strokeWidth="2" strokeLinecap="round"/>
</svg>
