<svg width="128" height="33" viewBox="0 0 128 33" fill="none" xmlns="http://www.w3.org/2000/svg">
<g clipPath="url(#clip0_2693_1190)">
<path d="M16 33C24.8368 33 32 25.8368 32 17C32 8.1632 24.8368 1 16 1C7.1632 1 0 8.1632 0 17C0 25.8368 7.1632 33 16 33ZM23.5296 14.7024C23.2512 16.3872 22.3696 17.2096 21.176 17.5008C22.7632 18.3888 23.528 19.7376 22.7104 22.104C21.6944 25.0704 19.4192 25.3392 16.4064 24.7648L15.6288 27.896L13.8784 27.4624L14.6544 24.3312C14.456 24.2784 14.256 24.232 14.0576 24.1856C13.7824 24.1216 13.4976 24.056 13.216 23.9744L12.44 27.1056L10.6928 26.6736L11.4688 23.5408L7.9872 22.5936L8.8512 20.3792C8.8512 20.3792 10.1664 20.7408 10.1472 20.7184C10.6336 20.8368 10.872 20.4944 10.9696 20.2576L12.2112 15.2384L13.1168 11.6704C13.1552 11.2848 13.0336 10.7792 12.3216 10.5872C12.3696 10.56 11.0416 10.2704 11.0416 10.2704L11.5584 8.1712L15.1472 9.0608L15.9072 5.9936L17.7152 6.4416L16.9552 9.5088C17.4208 9.6112 17.8736 9.7328 18.3408 9.8528L19.0992 6.7856L20.8592 7.2208L20.0784 10.368C22.2976 11.184 23.896 12.3888 23.5296 14.7024ZM15.3696 15.3264C16.4208 15.6432 19.5376 16.5792 20.0624 14.4944C20.552 12.5104 17.8512 11.9056 16.5968 11.624C16.4707 11.5979 16.3453 11.5686 16.2208 11.536L15.2816 15.3008L15.3696 15.3264ZM13.7472 21.4384L13.8992 21.4848C15.1952 21.8688 18.8688 22.9616 19.368 20.8928C19.88 18.8992 16.5776 18.1232 15.0976 17.7744C14.9595 17.7434 14.8219 17.7103 14.6848 17.6752L13.7472 21.4384Z" fill="#9CA3AF"/>
</g>
<g clipPath="url(#clip1_2693_1190)">
<path d="M64 0.595703C72.837 0.595703 80 7.7587 80 16.5957C80 25.4327 72.837 32.5957 64 32.5957C55.163 32.5957 48 25.4327 48 16.5957C48 7.7587 55.163 0.595703 64 0.595703ZM67.352 6.1557C67.108 6.0357 66.864 6.1557 66.804 6.3987C66.743 6.4597 66.743 6.5207 66.743 6.6417V7.4917L66.753 7.5957C66.8052 7.80143 66.9317 7.98059 67.108 8.0987C71.862 9.7987 74.3 15.0787 72.532 19.7517C71.618 22.3017 69.607 24.2427 67.108 25.1537C66.864 25.2747 66.743 25.4567 66.743 25.7607V26.6107L66.748 26.6987C66.7575 26.7947 66.7976 26.8852 66.8625 26.9566C66.9273 27.0281 67.0134 27.0769 67.108 27.0957C67.169 27.0957 67.291 27.0957 67.352 27.0357C68.7236 26.6074 69.9969 25.912 71.0986 24.9895C72.2003 24.0671 73.1086 22.9358 73.7714 21.6609C74.4341 20.3859 74.838 18.9925 74.96 17.5608C75.082 16.1291 74.9195 14.6874 74.482 13.3187C73.386 9.8587 70.704 7.2477 67.352 6.1557ZM60.892 6.0957C60.831 6.0957 60.709 6.0957 60.648 6.1557C59.2764 6.58403 58.0031 7.27943 56.9014 8.20188C55.7997 9.12432 54.8914 10.2556 54.2286 11.5305C53.5659 12.8055 53.162 14.1989 53.04 15.6306C52.918 17.0623 53.0805 18.504 53.518 19.8727C54.614 23.2727 57.235 25.8827 60.648 26.9747C60.892 27.0957 61.136 26.9747 61.196 26.7317C61.257 26.6717 61.257 26.6097 61.257 26.4887V25.6387L61.247 25.5587C61.205 25.3897 61.048 25.1967 60.892 25.0927C56.138 23.3927 53.7 18.1127 55.468 13.4397C56.382 10.8897 58.393 8.9487 60.892 8.0377C61.136 7.9167 61.257 7.7347 61.257 7.4307V6.5807L61.252 6.4927C61.2425 6.39668 61.2024 6.30625 61.1375 6.23477C61.0727 6.16329 60.9866 6.11453 60.892 6.0957ZM64.427 9.2517H63.512L63.424 9.2597C63.224 9.2997 63.078 9.4717 63.024 9.7377V11.1337L62.817 11.1657C61.109 11.4697 60.039 12.6487 60.039 14.1077C60.039 16.1097 61.257 16.8987 63.817 17.2027C65.524 17.5057 66.072 17.8707 66.072 18.8417C66.072 19.8117 65.219 20.4797 64.061 20.4797C62.476 20.4797 61.928 19.8127 61.745 18.9017C61.685 18.6597 61.501 18.5377 61.318 18.5377H60.282L60.203 18.5447C60.1044 18.5606 60.0149 18.6118 59.9511 18.6886C59.8873 18.7655 59.8535 18.8628 59.856 18.9627V19.0227L59.889 19.2027C60.179 20.6267 61.155 21.6457 63.086 21.9367V23.3937L63.094 23.4817C63.134 23.6797 63.307 23.8257 63.574 23.8787H64.488L64.576 23.8707C64.776 23.8307 64.922 23.6587 64.976 23.3937V21.9357L65.183 21.8957C66.896 21.5337 68.023 20.2947 68.023 18.7187C68.023 16.5947 66.743 15.8667 64.183 15.5627C62.354 15.3197 61.989 14.8347 61.989 13.9847C61.989 13.1347 62.599 12.5887 63.817 12.5887C64.914 12.5887 65.524 12.9527 65.828 13.8637C65.8597 13.9518 65.9176 14.0281 65.9939 14.0822C66.0703 14.1364 66.1614 14.1659 66.255 14.1667H67.23L67.309 14.1607C67.408 14.145 67.4978 14.0938 67.5619 14.0167C67.6259 13.9396 67.6597 13.8419 67.657 13.7417V13.6817L67.62 13.5087C67.4699 12.8871 67.1275 12.3287 66.6417 11.9129C66.1559 11.4971 65.5513 11.2451 64.914 11.1927V9.7377L64.906 9.6497C64.866 9.4507 64.694 9.3047 64.427 9.2517Z" fill="#9CA3AF"/>
</g>
<g clipPath="url(#clip2_2693_1190)">
<path d="M111.999 0.595703L102.172 16.889L111.999 22.6944L121.825 16.889L111.999 0.595703ZM111.999 32.5957L102.172 18.7517L111.999 24.5957L121.825 18.7517L111.999 32.5957Z" fill="#9CA3AF"/>
</g>
<defs>
<clipPath id="clip0_2693_1190">
<rect width="32" height="32" fill="white" transform="translate(0 0.595703)"/>
</clipPath>
<clipPath id="clip1_2693_1190">
<rect width="32" height="32" fill="white" transform="translate(48 0.595703)"/>
</clipPath>
<clipPath id="clip2_2693_1190">
<rect width="32" height="32" fill="white" transform="translate(96 0.595703)"/>
</clipPath>
</defs>
</svg>
