<svg width="20" height="20" viewBox="0 0 20 20" fill="none" xmlns="http://www.w3.org/2000/svg">
<g clipPath="url(#clip0_2800_4044)">
<path d="M8.2487 3.53398C8.82231 3.39972 9.40958 3.3326 9.9987 3.33398C15.832 3.33398 19.1654 10.0007 19.1654 10.0007C18.6595 10.947 18.0562 11.8379 17.3654 12.659M11.7654 11.7673C11.5365 12.0129 11.2605 12.2099 10.9538 12.3466C10.6472 12.4832 10.3161 12.5567 9.98044 12.5626C9.64476 12.5685 9.31133 12.5068 9.00004 12.3811C8.68874 12.2553 8.40597 12.0682 8.16857 11.8308C7.93117 11.5934 7.74402 11.3106 7.61829 10.9993C7.49255 10.688 7.4308 10.3546 7.43673 10.0189C7.44265 9.68323 7.51612 9.35219 7.65276 9.04552C7.7894 8.73886 7.98641 8.46286 8.23203 8.23398M0.832031 0.833984L19.1654 19.1673M14.9487 14.9507C13.5242 16.0365 11.7896 16.638 9.9987 16.6673C4.16536 16.6673 0.832031 10.0007 0.832031 10.0007C1.86861 8.0689 3.30631 6.38116 5.0487 5.05065L14.9487 14.9507Z" stroke="white" strokeWidth="1.5" strokeLinecap="round" strokeLinejoin="round"/>
</g>
<defs>
<clipPath id="clip0_2800_4044">
<rect width="20" height="20" fill="white"/>
</clipPath>
</defs>
</svg>
