<svg width="20" height="16" viewBox="0 0 20 16" fill="none" xmlns="http://www.w3.org/2000/svg">
<g filter="url(#filter0_ii_2696_1220)">
<path d="M3.09992 7.2708C7.39487 5.39955 10.2589 4.16591 11.6919 3.56988C15.7834 1.86808 16.6335 1.57246 17.1877 1.56259C17.3095 1.56055 17.582 1.59076 17.7586 1.73399C17.9076 1.85493 17.9486 2.01831 17.9683 2.13298C17.9879 2.24764 18.0123 2.50886 17.9929 2.71296C17.7712 5.04259 16.8118 10.696 16.3237 13.3052C16.1172 14.4093 15.7105 14.7795 15.3168 14.8157C14.4613 14.8944 13.8116 14.2503 12.9829 13.7071C11.6862 12.8571 10.9537 12.3279 9.69503 11.4985C8.24042 10.5399 9.18338 10.0131 10.0124 9.15209C10.2293 8.92676 13.999 5.49796 14.0719 5.18691C14.0811 5.14801 14.0895 5.00301 14.0034 4.92644C13.9172 4.84987 13.7901 4.87605 13.6983 4.89688C13.5683 4.92639 11.4968 6.29557 7.48389 9.0044C6.89591 9.40815 6.36333 9.60487 5.88616 9.59457C5.36012 9.5832 4.34822 9.29713 3.59598 9.05261C2.67333 8.75269 1.94002 8.59412 2.00388 8.08477C2.03714 7.81947 2.40248 7.54814 3.09992 7.2708Z" fill="url(#paint0_linear_2696_1220)"/>
</g>
<path d="M11.4297 7.04312C11.0356 7.41336 10.6453 7.77644 10.3261 8.07332C9.94109 8.43145 9.65962 8.69326 9.60006 8.75513C9.50441 8.85448 9.40567 8.9505 9.30366 9.04891C9.29215 9.06003 9.28054 9.07121 9.26887 9.08246C9.17975 9.16837 9.0868 9.25796 9.00029 9.34599C8.81342 9.53614 8.59724 9.77606 8.47322 10.0588C8.33202 10.3807 8.31546 10.7466 8.50704 11.1135C8.677 11.439 8.98657 11.7171 9.3801 11.9764C9.97802 12.3704 10.4563 12.6961 10.9368 13.0234L11.0026 13.0682C11.5056 13.4107 12.0164 13.7578 12.6692 14.1857C12.8314 14.2921 12.9855 14.4019 13.1457 14.5161C13.1786 14.5396 13.2118 14.5633 13.2454 14.5871C13.4368 14.723 13.6401 14.8648 13.8499 14.9881C14.2728 15.2366 14.7727 15.4405 15.3693 15.3856C16.1732 15.3116 16.6696 14.569 16.8863 13.4105C17.374 10.8032 18.3382 5.12597 18.5626 2.76719C18.5883 2.498 18.5576 2.18373 18.5324 2.03643C18.5067 1.88606 18.4353 1.54608 18.1192 1.28956C17.94 1.14415 17.7371 1.07336 17.5857 1.03716C17.4305 1.00008 17.2838 0.988565 17.1781 0.990338L17.1775 0.990348C16.7976 0.997111 16.3689 1.10421 15.571 1.39375C14.7633 1.68687 13.5157 2.1914 11.4721 3.04143C10.0348 3.63922 7.16923 4.87358 2.87964 6.74247C2.5142 6.8883 2.19967 7.04601 1.96159 7.22281C1.73655 7.38994 1.48195 7.64695 1.43598 8.01358C1.39995 8.30098 1.48249 8.56156 1.652 8.76991C1.80328 8.95585 2.00464 9.07714 2.18048 9.16232C2.44331 9.28963 2.79484 9.39996 3.13433 9.50652C3.23099 9.53685 3.32667 9.56688 3.41905 9.59691C3.80301 9.72172 4.25727 9.85849 4.68669 9.96617C5.10282 10.0705 5.54129 10.1596 5.8738 10.1668C6.5162 10.1806 7.16603 9.91658 7.80593 9.47754C9.27481 8.48601 10.4826 7.67462 11.4297 7.04312Z" stroke="#9CA3AF" strokeWidth="1.14467"/>
<defs>
<filter id="filter0_ii_2696_1220" x="0.855469" y="-2.12617" width="18.2891" height="18.093" filterUnits="userSpaceOnUse" color-interpolation-filters="sRGB">
<feFlood flood-opacity="0" result="BackgroundImageFix"/>
<feBlend mode="normal" in="SourceGraphic" in2="BackgroundImageFix" result="shape"/>
<feColorMatrix in="SourceAlpha" type="matrix" values="0 0 0 0 0 0 0 0 0 0 0 0 0 0 0 0 0 0 127 0" result="hardAlpha"/>
<feOffset dy="-2.54414"/>
<feGaussianBlur stdDeviation="1.56188"/>
<feComposite in2="hardAlpha" operator="arithmetic" k2="-1" k3="1"/>
<feColorMatrix type="matrix" values="0 0 0 0 0.1475 0 0 0 0 0.2268 0 0 0 0 0.3 0 0 0 1 0"/>
<feBlend mode="normal" in2="shape" result="effect1_innerShadow_2696_1220"/>
<feColorMatrix in="SourceAlpha" type="matrix" values="0 0 0 0 0 0 0 0 0 0 0 0 0 0 0 0 0 0 127 0" result="hardAlpha"/>
<feOffset dy="-0.468563"/>
<feGaussianBlur stdDeviation="0.468563"/>
<feComposite in2="hardAlpha" operator="arithmetic" k2="-1" k3="1"/>
<feColorMatrix type="matrix" values="0 0 0 0 0.441667 0 0 0 0 0.441667 0 0 0 0 0.441667 0 0 0 1 0"/>
<feBlend mode="normal" in2="effect1_innerShadow_2696_1220" result="effect2_innerShadow_2696_1220"/>
</filter>
<linearGradient id="paint0_linear_2696_1220" x1="10" y1="1.5625" x2="10" y2="14.8223" gradientUnits="userSpaceOnUse">
<stop stopColor="#9EABBA"/>
<stop offset="1" stopColor="#3A4256"/>
</linearGradient>
</defs>
</svg>
