<svg width="18" height="16" viewBox="0 0 18 16" fill="none" xmlns="http://www.w3.org/2000/svg">
<g filter="url(#filter0_ii_2696_1219)">
<path d="M16.5667 3.81872C16.7119 3.6421 16.5181 3.3986 16.2982 3.46127C16.053 3.53112 15.8579 3.11079 16.0131 2.90856C16.0859 2.81366 16.1526 2.71388 16.2127 2.60922C16.3492 2.37156 16.0684 2.14774 15.8157 2.2539C15.4972 2.38771 15.1563 2.49269 14.7929 2.59016C14.5498 2.65535 14.2945 2.57783 14.0956 2.42374C13.5167 1.9754 12.7583 1.69141 12 1.69141C10.5784 1.69141 9.38592 2.60794 8.91895 3.82057C8.57653 4.70974 7.84197 5.65562 6.91866 5.42031C5.48671 5.05536 4.18118 4.34529 3.07429 3.38038C2.50755 2.88633 1.59534 2.98958 1.55293 3.74023C1.50846 4.52724 1.75727 5.31498 2.24235 5.95523C2.44196 6.2187 2.29305 6.58915 1.9819 6.47754C1.75564 6.39637 1.50203 6.55388 1.54054 6.79116C1.69541 7.74531 2.28283 8.61436 3.10993 9.15029C3.33521 9.29627 3.29016 9.73457 3.02172 9.73277C2.82957 9.73148 2.67144 9.91419 2.75132 10.089C2.99618 10.6247 3.38298 11.0895 3.87035 11.4256C4.38318 11.7792 4.64332 12.6437 4.05457 12.8473C3.3946 13.0755 3.08489 14.2055 3.75913 14.3872C4.48272 14.5823 5.23226 14.6914 6 14.6914C11.9366 14.6914 15.3159 9.86104 15.3083 5.26995C15.308 5.03735 15.429 4.82182 15.6204 4.68967C15.9732 4.44609 16.2935 4.15083 16.5667 3.81872Z" fill="url(#paint0_linear_2696_1219)"/>
</g>
<path d="M14.6446 2.03736L14.7923 2.58798L14.6446 2.03736C14.615 2.0453 14.5406 2.04446 14.446 1.97125C13.775 1.45156 12.8952 1.11907 12 1.11907C10.3256 1.11907 8.93097 2.19674 8.38484 3.61489C8.2342 4.00607 8.00628 4.38156 7.74669 4.62318C7.49408 4.85831 7.27195 4.91971 7.06 4.8657C5.72026 4.52425 4.49407 3.85877 3.45038 2.94895C3.04604 2.59648 2.50115 2.43783 2.01 2.53129C1.75883 2.57909 1.50678 2.69692 1.3104 2.90736C1.1102 3.12189 0.998917 3.39974 0.981504 3.70794C0.93727 4.49081 1.13904 5.26832 1.54154 5.93903C1.47066 5.96466 1.40314 5.99891 1.34077 6.0412C1.09253 6.20948 0.916407 6.5182 0.975595 6.88286C1.13446 7.86165 1.6763 8.75228 2.44585 9.37463C2.40595 9.40925 2.36932 9.4474 2.33654 9.48861C2.16915 9.69912 2.08852 10.0156 2.23078 10.3269C2.51805 10.9554 2.97191 11.5013 3.54543 11.8968C3.60478 11.9377 3.6669 12.0012 3.71879 12.0808C3.77091 12.1608 3.80172 12.2401 3.81373 12.3019C3.81538 12.3104 3.81658 12.318 3.81745 12.3248C3.28191 12.5337 2.95198 13.0509 2.84834 13.5082C2.79266 13.7538 2.78613 14.0456 2.89861 14.3195C3.02017 14.6155 3.26544 14.8469 3.61019 14.9398C4.37801 15.1468 5.17766 15.2637 6 15.2637C12.313 15.2637 15.8886 10.1131 15.8807 5.26901C15.8806 5.23832 15.8977 5.19368 15.9456 5.16065L15.6204 4.68967L15.9456 5.16065C16.3426 4.88654 16.7022 4.555 17.0087 4.18226L16.5667 3.81872L17.0087 4.18226C17.2756 3.85767 17.218 3.45474 17.023 3.20131C16.9371 3.08968 16.8191 2.99762 16.6818 2.94076C16.691 2.92537 16.7 2.90988 16.709 2.89431C16.8082 2.7216 16.8458 2.5205 16.8039 2.32085C16.7634 2.1279 16.6568 1.97414 16.5319 1.86748C16.2878 1.65896 15.9259 1.5868 15.594 1.72625C15.3099 1.84562 14.9971 1.94282 14.6446 2.03736Z" stroke="#9CA3AF" strokeWidth="1.14467"/>
<defs>
<filter id="filter0_ii_2696_1219" x="0.390625" y="-1.99727" width="17.3711" height="17.8332" filterUnits="userSpaceOnUse" color-interpolation-filters="sRGB">
<feFlood flood-opacity="0" result="BackgroundImageFix"/>
<feBlend mode="normal" in="SourceGraphic" in2="BackgroundImageFix" result="shape"/>
<feColorMatrix in="SourceAlpha" type="matrix" values="0 0 0 0 0 0 0 0 0 0 0 0 0 0 0 0 0 0 127 0" result="hardAlpha"/>
<feOffset dy="-2.54414"/>
<feGaussianBlur stdDeviation="1.56188"/>
<feComposite in2="hardAlpha" operator="arithmetic" k2="-1" k3="1"/>
<feColorMatrix type="matrix" values="0 0 0 0 0.1475 0 0 0 0 0.2268 0 0 0 0 0.3 0 0 0 1 0"/>
<feBlend mode="normal" in2="shape" result="effect1_innerShadow_2696_1219"/>
<feColorMatrix in="SourceAlpha" type="matrix" values="0 0 0 0 0 0 0 0 0 0 0 0 0 0 0 0 0 0 127 0" result="hardAlpha"/>
<feOffset dy="-0.468563"/>
<feGaussianBlur stdDeviation="0.468563"/>
<feComposite in2="hardAlpha" operator="arithmetic" k2="-1" k3="1"/>
<feColorMatrix type="matrix" values="0 0 0 0 0.441667 0 0 0 0 0.441667 0 0 0 0 0.441667 0 0 0 1 0"/>
<feBlend mode="normal" in2="effect1_innerShadow_2696_1219" result="effect2_innerShadow_2696_1219"/>
</filter>
<linearGradient id="paint0_linear_2696_1219" x1="9" y1="1.69141" x2="9" y2="14.6914" gradientUnits="userSpaceOnUse">
<stop stopColor="#9EABBA"/>
<stop offset="1" stopColor="#3A4256"/>
</linearGradient>
</defs>
</svg>
